<?xml version="1.0" encoding="utf-8"?>
<!-- Generator: Adobe Illustrator 27.0.0, SVG Export Plug-In . SVG Version: 6.00 Build 0)  -->
<svg version="1.1" id="Layer_2_00000146462301171282982330000005534433376119884980_"
	 xmlns="http://www.w3.org/2000/svg" xmlns:xlink="http://www.w3.org/1999/xlink" x="0px" y="0px" viewBox="0 0 148.9 38.4"
	 style="enable-background:new 0 0 148.9 38.4;" xml:space="preserve">
<style type="text/css">
	.st0{fill:#FFFFFF;}
</style>
<g id="Layer_1-2">
	<g>
		<g>
			<g>
				<path class="st0" d="M54.6,35.3c0,0.8,0.1,1.3,0.2,1.5c0.1,0.1,0.2,0.2,0.5,0.3c0.8,0.3,2.5,0.4,5.1,0.4V38h-17v-0.5
					c1.1,0,2.2,0,3.1-0.1c0.9-0.1,1.7-0.2,2.4-0.5c0.2-0.2,0.3-0.8,0.3-1.7V4c0-0.8-0.1-1.3-0.3-1.6s-0.5-0.5-0.7-0.6
					c-0.7-0.2-2.3-0.3-4.7-0.3V1l11.2-1L54.6,35.3L54.6,35.3z"/>
				<path class="st0" d="M76.9,20.6v-3.4c0-1.6-0.2-2.6-0.7-3.2c-0.5-0.6-1.6-0.8-3.2-0.8c-1.3,0-2.5,0.3-3.5,0.8s-1.7,1.2-2,2.1
					c0.2,0,0.3-0.1,0.6-0.1c0.7,0,1.3,0.3,1.8,0.9s0.7,1.2,0.7,2c0,0.9-0.3,1.6-0.9,2.1s-1.3,0.8-2.1,0.8c-0.5,0-1-0.1-1.4-0.4
					c-1.1-0.7-1.7-1.7-1.7-2.8c0-0.5,0.1-1.2,0.3-1.9c0.5-1.5,1.9-2.6,4.1-3.3c1.6-0.5,3.1-0.8,4.7-0.8c2.9,0,5.1,0.5,6.5,1.6
					c1.3,1,2,2.2,2,3.7v12.9c0,2.3,0.1,3.8,0.2,4.3c0.3,1.3,1,2,2.1,2c1,0,1.7-0.5,2-1.6c0.3-1,0.5-2.5,0.5-4.5c0-0.5,0-1.1,0-1.6
					s0-1.1,0-1.7v-0.5h0.7v2.6c0,0.8,0,1.6,0.1,2.3c0,2.3-0.3,3.8-0.8,4.5c-0.7,1-2.1,1.5-4.3,1.5c-1.7,0-2.9-0.3-3.8-0.9
					c-1-0.7-1.6-1.9-1.9-3.5c-0.8,1.9-2,3.2-3.7,3.8c-1,0.4-2.3,0.6-3.9,0.6s-3.1-0.4-4.3-1.2c-1.7-1-2.5-2.7-2.5-4.8
					s0.8-3.9,2.4-5.3c1.6-1.4,3.6-2.2,5.9-2.4c2.3-0.2,3.9-0.5,4.7-0.9C76.5,23.1,76.9,22.1,76.9,20.6L76.9,20.6z M76.8,31.2v-7.8
					c-0.5,0.6-1.2,1-2.1,1.1s-1.8,0.3-2.7,0.4c-1.1,0.3-2,0.9-2.7,1.9c-0.8,1.2-1.2,2.8-1.2,4.9c0,2.3,0.2,3.8,0.7,4.6
					s1.2,1.2,2.1,1.2c1.5,0,2.8-0.6,4-1.8C76.2,34.4,76.8,32.9,76.8,31.2z"/>
				<path class="st0" d="M94.5,17c0-0.8-0.1-1.3-0.2-1.5c-0.3-0.4-0.5-0.6-0.8-0.7c-0.7-0.2-2.3-0.3-4.8-0.3V14l11.3-0.9v7.4
					c0.2-1.6,0.7-3.1,1.6-4.5c1.3-1.9,2.9-2.9,4.8-2.9c0.7,0,1.5,0.2,2.4,0.7s1.4,1.1,1.7,1.8c0.3,0.7,0.4,1.4,0.4,2
					c0,1.6-0.7,2.6-1.9,3.2c-0.3,0.2-0.7,0.2-1.2,0.2c-0.8,0-1.4-0.3-2-0.8s-0.8-1.4-0.8-2.5c0-0.7,0.3-1.4,0.8-2.1
					c0.5-0.7,1.2-1,1.9-0.8c-0.2-0.8-0.9-1.2-2.1-1.2s-2.2,0.8-3.4,2.5c-1.5,2.1-2.2,4.8-2.2,8.1v10.9c0,0.8,0.1,1.3,0.2,1.5
					c0.1,0.1,0.2,0.2,0.5,0.3c0.8,0.3,2.5,0.4,5.1,0.4v0.5h-17v-0.5c1.1,0,2.2,0,3.1-0.1s1.7-0.2,2.4-0.5c0.2-0.2,0.3-0.8,0.3-1.7
					L94.5,17L94.5,17z"/>
				<path class="st0" d="M122.8,13.2v22.1c0,0.8,0.1,1.3,0.2,1.5c0.1,0.1,0.2,0.2,0.5,0.3c0.8,0.3,2.5,0.4,5.1,0.4V38h-17v-0.5
					c1.1,0,2.2,0,3.1-0.1s1.7-0.2,2.4-0.5c0.2-0.2,0.3-0.8,0.3-1.7V17c0-0.7-0.1-1.2-0.2-1.4c-0.3-0.4-0.5-0.6-0.8-0.7
					c-0.7-0.2-2.3-0.3-4.8-0.3v-0.5L122.8,13.2L122.8,13.2z M119.8,0c0.9,0,1.7,0.3,2.3,0.9c0.6,0.6,0.9,1.4,0.9,2.3
					s-0.3,1.7-0.9,2.3s-1.4,0.9-2.3,0.9s-1.7-0.3-2.3-0.9c-0.6-0.6-0.9-1.4-0.9-2.3s0.3-1.7,0.9-2.3S118.9,0,119.8,0z"/>
				<path class="st0" d="M144.4,14.5c1.5-1.1,2.3-1.7,2.4-1.8v8.8l-0.5-0.1c-0.6-2.3-1.5-4.2-2.9-5.7c-1.5-1.6-3.2-2.4-5-2.4
					c-1.4,0-2.6,0.3-3.4,0.8c-1.2,0.7-1.8,2-1.8,3.7c0,1.4,0.7,2.5,2,3.3c0.9,0.5,2.8,1.1,5.6,1.8c2.8,0.7,4.7,1.4,5.9,2.3
					c1.6,1.2,2.4,3.2,2.4,6c0,2.5-0.9,4.4-2.6,5.6c-1.4,1-3.1,1.5-5.1,1.5c-1.7,0-2.9-0.1-3.7-0.3c-1.1-0.3-2.3-1.2-3.6-2.5
					c-1.6,1.8-2.4,2.8-2.4,2.9V27.8h0.4c0.7,2.4,1.2,4.1,1.6,5c0.6,1.3,1.2,2.2,1.9,2.9c0.9,0.9,1.8,1.4,2.6,1.6s2,0.3,3.6,0.3
					c1.2,0,2.2-0.3,3-0.9c0.9-0.7,1.4-1.8,1.4-3.2c0-1.8-0.6-3-1.9-3.9c-1-0.7-2.7-1.2-5.2-1.8c-2.5-0.5-4.4-1.3-5.8-2.5
					c-1.6-1.4-2.5-3.2-2.5-5.4c0-2,0.7-3.7,2.1-5.2s3.1-2.1,5.1-2.1c1.5,0,2.8,0.2,4,0.8C143.3,14.1,144.1,14.4,144.4,14.5
					L144.4,14.5z"/>
			</g>
			<path class="st0" d="M15.1,0.7h9.2c13,0,13,7,13,15.4h0.8V0H0v0.7c3.5,0,5.8,0.1,6.9,0.5c0.4,0.2,0.7,0.4,0.8,0.6s0.2,0.9,0.2,2
				v30.3c0,0.2,0,0.5,0,0.7c0,0.1-0.1,1.1-0.2,1.3c-0.2,0.4-0.6,0.6-1,0.7C5.9,37.1,5,37.2,4,37.3c-0.9,0.1-1.7,0.2-2.6,0.2
				c-0.5,0-1,0-1.5,0V38H38V21.9h-0.8c0,8.9-0.9,14.3-13,14.3H15V19.4c3.7,0,5.9,0.3,6.8,1c0.6,0.5,1.1,1.4,1.5,2.7
				c0.5,1.5,0.9,3.8,1.2,6.4h0.6c0.5-4.9,1.4-8,2.7-9.1c0.9-0.7,3.1-1,6.8-1v-0.6c-3.6,0-5.9-0.4-6.8-1.2c-1.3-1.1-2.2-4.2-2.7-8.9
				h-0.6c-0.3,2.6-0.7,4.8-1.2,6.3c-0.4,1.2-0.9,2.1-1.5,2.6c-0.9,0.8-3.2,1.2-6.8,1.2C15.1,18.7,15.1,0.7,15.1,0.7z"/>
		</g>
	</g>
</g>
</svg>
