<?xml version="1.0" encoding="UTF-8"?>
<svg id="Layer_2" data-name="Layer 2" xmlns="http://www.w3.org/2000/svg" viewBox="0 0 148.92 56.71">
  <defs>
    <style>
      .cls-1 {
        fill: #fff;
      }
    </style>
  </defs>
  <g id="Layer_1-2" data-name="Layer 1">
    <g>
      <g>
        <g>
          <path class="cls-1" d="M54.61,35.28c0,.78,.06,1.29,.17,1.52,.08,.12,.25,.23,.52,.35,.82,.27,2.51,.41,5.07,.41v.52h-17.03v-.52c1.13,0,2.15-.04,3.06-.12,.91-.08,1.7-.23,2.36-.47,.23-.2,.35-.76,.35-1.7V4.03c0-.78-.12-1.33-.35-1.64s-.47-.51-.7-.59c-.7-.2-2.26-.29-4.67-.29V.99l11.2-.99V35.28Z"/>
          <path class="cls-1" d="M76.95,20.62v-3.4c0-1.56-.25-2.62-.74-3.16-.5-.55-1.57-.82-3.21-.82-1.34,0-2.51,.26-3.52,.77-1.01,.52-1.67,1.21-1.98,2.08,.15-.04,.35-.06,.58-.06,.74,0,1.34,.29,1.81,.87,.47,.58,.7,1.25,.7,1.98,0,.86-.3,1.56-.88,2.1s-1.28,.82-2.06,.82c-.51,0-.96-.14-1.36-.41-1.14-.74-1.71-1.67-1.71-2.8,0-.54,.12-1.17,.35-1.87,.54-1.52,1.9-2.62,4.08-3.32,1.55-.5,3.13-.76,4.72-.76,2.88,0,5.05,.54,6.53,1.63,1.32,.97,1.98,2.19,1.98,3.67v12.86c0,2.33,.06,3.76,.17,4.31,.27,1.32,.97,1.98,2.1,1.98,1.01,0,1.69-.52,2.04-1.57,.35-1.04,.52-2.55,.52-4.52,0-.54,0-1.08-.03-1.62-.02-.54-.03-1.1-.03-1.68v-.52h.7v2.57c0,.82,.02,1.6,.06,2.33,0,2.26-.27,3.77-.82,4.55-.7,.97-2.13,1.46-4.28,1.46-1.68,0-2.93-.29-3.75-.87-.98-.69-1.62-1.87-1.94-3.53-.82,1.89-2.04,3.16-3.67,3.82-.97,.38-2.27,.58-3.91,.58s-3.05-.39-4.26-1.17c-1.67-1.05-2.51-2.65-2.51-4.79s.81-3.87,2.44-5.31c1.63-1.4,3.6-2.2,5.92-2.39,2.32-.19,3.89-.51,4.7-.93,.81-.43,1.22-1.38,1.22-2.86Zm-.17,10.55v-7.79c-.47,.62-1.16,1.01-2.07,1.14-.91,.14-1.8,.26-2.65,.38-1.13,.27-2.02,.9-2.68,1.88-.78,1.17-1.17,2.81-1.17,4.92,0,2.27,.22,3.8,.67,4.6,.45,.8,1.16,1.2,2.13,1.2,1.48,0,2.81-.62,3.99-1.85,1.19-1.23,1.78-2.72,1.78-4.48Z"/>
          <path class="cls-1" d="M94.5,17.05c0-.78-.08-1.27-.23-1.47-.27-.39-.52-.63-.76-.71-.7-.2-2.29-.29-4.78-.29v-.52l11.26-.88v7.41c.15-1.59,.7-3.09,1.63-4.49,1.28-1.94,2.9-2.92,4.84-2.92,.74,0,1.54,.24,2.39,.73,.85,.49,1.43,1.1,1.72,1.84,.29,.74,.44,1.4,.44,1.98,0,1.56-.65,2.62-1.94,3.21-.31,.16-.73,.23-1.24,.23-.79,0-1.45-.27-2-.82-.55-.54-.82-1.36-.82-2.45,0-.7,.26-1.4,.79-2.1,.53-.7,1.15-.97,1.86-.82-.23-.82-.93-1.23-2.09-1.23s-2.24,.82-3.37,2.46c-1.47,2.11-2.21,4.83-2.21,8.15v10.9c0,.78,.06,1.29,.17,1.52,.08,.12,.25,.24,.52,.35,.82,.27,2.51,.41,5.07,.41v.52h-17.03v-.52c1.13,0,2.15-.04,3.06-.12,.91-.08,1.7-.24,2.36-.47,.23-.2,.35-.76,.35-1.7V17.05Z"/>
          <path class="cls-1" d="M122.85,13.18v22.09c0,.78,.06,1.29,.17,1.52,.08,.12,.25,.24,.52,.35,.82,.27,2.51,.41,5.07,.41v.52h-17.03v-.52c1.13,0,2.15-.04,3.06-.12,.91-.08,1.7-.24,2.36-.47,.23-.2,.35-.76,.35-1.7V17.05c0-.74-.08-1.21-.23-1.41-.27-.39-.52-.63-.76-.71-.7-.19-2.29-.29-4.78-.29v-.53l11.26-.93Zm-3.06-13.18c.92,0,1.69,.31,2.31,.93,.62,.62,.93,1.4,.93,2.33s-.31,1.71-.93,2.33c-.62,.62-1.39,.93-2.31,.93s-1.7-.31-2.31-.93c-.62-.62-.92-1.4-.92-2.33s.31-1.71,.92-2.33c.62-.62,1.39-.93,2.31-.93Z"/>
          <path class="cls-1" d="M144.37,14.46c1.52-1.13,2.31-1.73,2.39-1.81v8.75l-.47-.12c-.55-2.33-1.52-4.24-2.92-5.72-1.52-1.59-3.19-2.39-5.02-2.39-1.4,0-2.55,.27-3.44,.82-1.21,.74-1.81,1.96-1.81,3.67,0,1.4,.66,2.49,1.97,3.27,.93,.55,2.79,1.15,5.58,1.81,2.79,.66,4.74,1.44,5.87,2.33,1.59,1.24,2.38,3.23,2.38,5.95,0,2.53-.86,4.39-2.57,5.6-1.36,.97-3.07,1.46-5.13,1.46-1.71,0-2.94-.12-3.67-.35-1.09-.35-2.27-1.19-3.56-2.51-1.56,1.83-2.37,2.78-2.45,2.86v-10.32h.41c.66,2.41,1.21,4.08,1.64,5.02,.59,1.28,1.21,2.24,1.87,2.86,.9,.86,1.75,1.39,2.55,1.6,.8,.21,2,.32,3.6,.32,1.21,0,2.21-.31,2.99-.93,.94-.74,1.4-1.79,1.4-3.15,0-1.75-.62-3.05-1.87-3.91-.98-.66-2.7-1.24-5.18-1.75-2.48-.5-4.4-1.32-5.77-2.45-1.64-1.36-2.46-3.17-2.46-5.42,0-2.02,.69-3.74,2.07-5.16,1.38-1.42,3.06-2.13,5.05-2.13,1.52,0,2.84,.25,3.97,.76,1.48,.66,2.33,1.01,2.57,1.05Z"/>
        </g>
        <path class="cls-1" d="M15.12,.71h9.24c12.97,0,12.97,7.01,12.97,15.44h.76V0H0V.71c3.48,0,5.78,.1,6.91,.53,.39,.16,.65,.36,.79,.62,.14,.26,.2,.94,.2,2.05v30.33c0,.23,0,.45,0,.68,0,.1-.09,1.1-.17,1.3-.17,.4-.58,.56-.97,.67-.88,.25-1.8,.35-2.71,.45-.86,.09-1.72,.19-2.59,.23-.49,.03-.98,.04-1.47,.04v.48H38.08V21.93h-.76c0,8.94-.92,14.28-12.97,14.28H15.12V19.35c3.65,0,5.91,.27,6.79,1.01,.6,.51,1.12,1.4,1.55,2.69,.52,1.54,.9,3.77,1.19,6.41h.63c.53-4.85,1.43-7.98,2.74-9.09,.88-.74,3.14-1.01,6.79-1.01v-.63c-3.65,0-5.92-.39-6.84-1.17-1.27-1.12-2.16-4.19-2.69-8.94h-.63c-.29,2.61-.67,4.81-1.19,6.33-.43,1.24-.93,2.11-1.5,2.61-.91,.78-3.19,1.17-6.84,1.17V.71Z"/>
      </g>
      <g>
        <path class="cls-1" d="M20.06,56c.23,.15,.48,.27,.76,.35,.28,.08,.59,.12,.93,.12,.5,0,.91-.09,1.21-.27,.3-.18,.52-.44,.67-.79,.15-.35,.25-.77,.3-1.26,.05-.49,.07-1.05,.07-1.66v-4.23h.24v4.23c0,.63-.03,1.21-.08,1.72-.05,.52-.17,.96-.33,1.34-.17,.38-.41,.66-.74,.86s-.77,.3-1.32,.3c-.36,0-.69-.04-.99-.13s-.58-.22-.83-.39l.13-.19Z"/>
        <path class="cls-1" d="M32.57,56.42v.24h-5.51v-8.4h5.4v.24h-5.17v3.75h4.53v.24h-4.53v3.94h5.27Z"/>
        <path class="cls-1" d="M38.29,48.33h.26l1.36,3.15,1.37-3.15h.26l-1.5,3.43,2.01,4.6,3.52-8.1h.26l-3.65,8.4h-.26l-2-4.6-2,4.6h-.26l-3.65-8.4h.26l3.52,8.1,2-4.6-1.5-3.43Z"/>
        <path class="cls-1" d="M53.33,56.42v.24h-5.51v-8.4h5.4v.24h-5.17v3.75h4.53v.24h-4.53v3.94h5.27Z"/>
        <path class="cls-1" d="M55.71,56.65v-8.4h.24v8.16h5.27v.24h-5.51Z"/>
        <path class="cls-1" d="M63.15,56.65v-8.4h3.42c.35,0,.66,.07,.95,.22,.29,.15,.54,.34,.74,.59s.37,.52,.49,.82c.12,.3,.18,.61,.18,.92,0,.43-.09,.84-.27,1.21-.18,.37-.43,.68-.75,.93-.32,.24-.69,.38-1.12,.41l2.13,3.3h-.28l-2.13-3.3h-3.12v3.3h-.24Zm.24-3.54h3.26c.43,0,.79-.11,1.09-.34s.54-.51,.7-.87c.17-.36,.25-.73,.25-1.11s-.09-.78-.28-1.13c-.19-.35-.45-.63-.77-.85-.32-.22-.68-.33-1.08-.33h-3.18v4.62Z"/>
        <path class="cls-1" d="M70.43,48.26l3.24,4.87,3.25-4.87h.27l-3.41,5.14v3.25h-.24v-3.28l-3.39-5.12h.27Z"/>
        <path class="cls-1" d="M84.27,52.6c0,.17-.04,.33-.12,.47-.08,.14-.19,.25-.33,.34-.14,.08-.29,.12-.47,.12s-.32-.04-.46-.12c-.14-.08-.26-.2-.34-.34-.09-.14-.13-.3-.13-.47s.04-.32,.13-.46,.2-.25,.34-.34,.3-.13,.46-.13,.33,.04,.47,.13c.14,.09,.25,.2,.33,.34,.08,.14,.12,.29,.12,.46Z"/>
        <path class="cls-1" d="M95.64,49.37c-.17-.18-.33-.33-.5-.46-.17-.12-.35-.22-.53-.29-.19-.07-.38-.12-.59-.15-.21-.03-.44-.05-.69-.05-.95,0-1.65,.18-2.08,.55s-.64,.85-.64,1.46c0,.4,.09,.72,.27,.95s.47,.42,.86,.56c.39,.14,.9,.27,1.52,.4,.62,.13,1.16,.27,1.62,.43,.46,.16,.81,.38,1.06,.66,.25,.28,.37,.67,.37,1.16,0,.34-.07,.64-.2,.9-.13,.26-.33,.49-.59,.66-.26,.18-.57,.31-.93,.41-.37,.09-.78,.14-1.24,.14s-.87-.05-1.25-.14c-.38-.09-.74-.24-1.07-.43s-.65-.44-.95-.73l.18-.15c.21,.22,.43,.41,.66,.57,.23,.16,.47,.29,.73,.39,.26,.1,.53,.18,.81,.22,.28,.05,.58,.07,.9,.07,.84,0,1.5-.16,1.98-.47,.49-.32,.73-.78,.73-1.41,0-.42-.1-.75-.3-1.01-.2-.26-.5-.46-.92-.63-.41-.16-.94-.31-1.59-.43-.62-.12-1.14-.25-1.57-.4-.43-.15-.76-.35-.99-.61s-.34-.63-.34-1.09c0-.49,.12-.9,.36-1.24,.24-.33,.58-.59,1.02-.76,.44-.17,.96-.26,1.55-.26,.35,0,.68,.03,.98,.1,.3,.07,.57,.17,.82,.32,.25,.15,.48,.34,.7,.59l-.15,.17Z"/>
        <path class="cls-1" d="M104.16,48.49h-3.22v8.16h-.24v-8.16h-3.22v-.24h6.67v.24Z"/>
        <path class="cls-1" d="M109.06,56.71c-.58,0-1.1-.12-1.58-.36-.48-.24-.89-.56-1.24-.96-.35-.4-.61-.86-.8-1.37-.19-.51-.28-1.03-.28-1.57s.1-1.09,.3-1.6c.2-.51,.47-.96,.83-1.36,.35-.4,.77-.71,1.25-.95,.48-.23,.99-.35,1.54-.35,.58,0,1.11,.12,1.59,.37,.48,.24,.89,.57,1.23,.98,.34,.41,.61,.87,.8,1.37s.28,1.02,.28,1.54c0,.57-.1,1.11-.3,1.61-.2,.51-.47,.96-.83,1.36-.35,.4-.77,.71-1.24,.94s-.99,.34-1.54,.34Zm-3.68-4.26c0,.52,.09,1.02,.27,1.5s.44,.91,.77,1.29c.33,.38,.72,.68,1.17,.9,.45,.22,.94,.33,1.47,.33s1.04-.11,1.49-.34c.45-.23,.84-.54,1.16-.92,.32-.39,.57-.82,.75-1.3,.18-.48,.27-.96,.27-1.46s-.09-1.02-.28-1.5c-.19-.48-.44-.91-.77-1.29-.33-.38-.72-.68-1.16-.9s-.93-.33-1.45-.33-1.04,.11-1.5,.34c-.45,.23-.84,.54-1.16,.92-.32,.39-.57,.82-.75,1.3-.18,.48-.27,.96-.27,1.46Z"/>
        <path class="cls-1" d="M115.29,56.65v-8.4h3.42c.35,0,.66,.07,.95,.22,.29,.15,.54,.34,.74,.59s.37,.52,.49,.82c.12,.3,.18,.61,.18,.92,0,.43-.09,.84-.27,1.21-.18,.37-.43,.68-.75,.93-.32,.24-.69,.38-1.12,.41l2.13,3.3h-.28l-2.13-3.3h-3.12v3.3h-.24Zm.24-3.54h3.26c.43,0,.79-.11,1.09-.34s.54-.51,.7-.87c.17-.36,.25-.73,.25-1.11s-.09-.78-.28-1.13c-.19-.35-.45-.63-.77-.85-.32-.22-.68-.33-1.08-.33h-3.18v4.62Z"/>
        <path class="cls-1" d="M128.98,56.42v.24h-5.51v-8.4h5.4v.24h-5.17v3.75h4.53v.24h-4.53v3.94h5.27Z"/>
      </g>
    </g>
  </g>
</svg>