<?xml version="1.0" encoding="UTF-8"?>
<svg id="Layer_2" data-name="Layer 2" xmlns="http://www.w3.org/2000/svg" viewBox="0 0 81.88 93.05">
  <defs>
    <style>
      .cls-1 {
        fill: #fff;
      }
    </style>
  </defs>
  <g id="Layer_1-2" data-name="Layer 1">
    <path class="cls-1" d="M43.04,11.23s-.06,0-.1,0L40.94,0l-2.01,11.22s-.06,0-.1,0C17.2,12.33,0,30.21,0,52.12c0,.35,0,.7,.01,1.06,0,.18,0,.35,.02,.53s.01,.35,.02,.52c0,.15,.02,.3,.02,.46,0,.06,0,.11,.01,.17,0,.14,.02,.28,.03,.42,.02,.21,.03,.41,.05,.62,0,.11,.02,.23,.03,.35,.03,.28,.06,.56,.09,.84,.02,.17,.04,.33,.06,.5,.02,.17,.04,.33,.07,.5,.02,.17,.05,.33,.08,.5,.08,.49,.17,.98,.26,1.47,.09,.45,.18,.89,.28,1.33,.01,.06,.03,.11,.04,.17,1.17,4.93,3.23,9.52,6,13.58,.02,.04,.05,.07,.07,.11,.17,.24,.33,.48,.5,.72,.06,.08,.12,.17,.18,.25,.24,.32,.48,.64,.72,.96,.14,.18,.29,.37,.43,.55,.1,.13,.21,.26,.31,.38,.24,.3,.49,.59,.74,.88,.05,.05,.1,.11,.14,.16,.23,.26,.47,.53,.71,.78,.08,.08,.15,.16,.23,.25,.28,.3,.57,.6,.86,.89,.25,.25,.51,.5,.77,.75,.26,.25,.52,.49,.79,.73,.13,.12,.27,.24,.4,.36,.27,.24,.54,.47,.82,.7,.14,.12,.28,.23,.42,.34,.25,.2,.5,.4,.75,.59,.03,.03,.07,.05,.1,.08,.44,.34,.88,.66,1.34,.98,.03,.02,.07,.05,.1,.07,.13,.09,.26,.18,.39,.27,.27,.18,.53,.36,.8,.53,0,0,.01,0,.02,.01,.13,.08,.26,.16,.39,.25,.26,.16,.52,.32,.78,.48,.01,0,.03,.02,.04,.03,.27,.16,.55,.33,.83,.49,.01,0,.03,.02,.04,.02,.27,.15,.53,.3,.8,.45,.13,.07,.27,.14,.4,.21,0,0,.01,0,.02,.01,.01,0,.03,.01,.04,.02,.27,.14,.54,.28,.82,.42,.14,.06,.27,.13,.41,.2,0,0,.01,0,.02,.01,.03,.01,.06,.03,.09,.04,.38,.18,.76,.36,1.14,.52,.03,.01,.06,.03,.09,.04,.3,.13,.59,.25,.89,.38,.15,.06,.3,.12,.45,.18,.3,.12,.61,.23,.91,.35,.02,0,.03,.01,.05,.02,.29,.1,.58,.21,.87,.31,.31,.1,.62,.2,.93,.3,.3,.09,.59,.18,.89,.27,.02,0,.03,0,.05,.01,.47,.13,.95,.26,1.43,.38,.48,.12,.96,.23,1.45,.33,.16,.04,.32,.07,.49,.1,.32,.06,.65,.12,.98,.18,.39,.07,.79,.13,1.19,.18,.1,.01,.2,.03,.3,.04,.66,.09,1.33,.16,2,.22,.34,.03,.67,.05,1.01,.07,.51,.03,1.02,.05,1.53,.06h.91s0,.01,0,.01h.22s.69-.01,.69-.01c.51-.01,1.02-.03,1.53-.06,.34-.02,.67-.04,1.01-.07,.67-.06,1.34-.13,2-.22,.1-.01,.2-.03,.3-.04,.4-.06,.79-.12,1.18-.18,.33-.06,.65-.12,.98-.18,.16-.03,.32-.07,.49-.1,.48-.1,.97-.21,1.45-.33,.48-.12,.95-.25,1.43-.38,.02,0,.03,0,.05-.01,.3-.08,.6-.17,.89-.27,.31-.1,.62-.2,.93-.3,.29-.1,.58-.21,.87-.31,.02,0,.03-.01,.05-.02,.31-.11,.61-.23,.91-.35,.15-.06,.3-.12,.45-.18,.3-.12,.6-.25,.89-.38,.03-.01,.06-.03,.08-.04,.39-.17,.77-.35,1.15-.53,.03-.01,.06-.03,.08-.04,0,0,.01,0,.02,0,.14-.07,.28-.13,.41-.2,.27-.14,.55-.28,.82-.42,.01,0,.03-.01,.04-.02,0,0,.01,0,.02-.01,.14-.07,.27-.14,.41-.21,.27-.15,.54-.29,.8-.45,.01,0,.03-.02,.04-.02,.28-.16,.55-.32,.83-.49,.01,0,.03-.02,.04-.03,.26-.16,.52-.32,.78-.48,.13-.08,.26-.17,.38-.25,0,0,.01,0,.02-.01,.27-.18,.53-.35,.8-.53,.13-.09,.26-.18,.39-.27,.03-.02,.07-.05,.1-.07,.46-.32,.9-.65,1.35-.99,.03-.02,.06-.05,.09-.07,.25-.2,.5-.39,.75-.59,.14-.11,.28-.23,.42-.34,.28-.23,.55-.46,.82-.7,.13-.12,.27-.24,.4-.36,.27-.24,.53-.48,.79-.73,.26-.25,.52-.5,.77-.75,.26-.26,.52-.53,.77-.8,.1-.11,.2-.21,.3-.32,.14-.15,.28-.3,.42-.46,.14-.16,.28-.31,.42-.47,.05-.05,.09-.11,.14-.16,3.72-4.31,6.56-9.39,8.24-14.98,.18-.61,.35-1.23,.51-1.86,.08-.33,.16-.67,.23-1,.07-.32,.14-.65,.2-.97,.03-.16,.06-.32,.09-.48,0,0,0,0,0-.01,.03-.15,.06-.31,.08-.47,0,0,0-.02,0-.03,.03-.16,.05-.31,.08-.47,.03-.17,.05-.33,.08-.5,.02-.13,.04-.25,.05-.38,.02-.13,.04-.26,.05-.39,.02-.16,.04-.32,.06-.48,.02-.19,.04-.39,.06-.58,.01-.12,.02-.23,.03-.35,.02-.21,.04-.41,.05-.62,.01-.14,.02-.28,.03-.42,0-.06,0-.11,.01-.17,0-.15,.02-.3,.02-.46,0-.17,.02-.35,.02-.52s.01-.35,.02-.53c0-.35,.01-.7,.01-1.06,0-21.91-17.2-39.79-38.84-40.89Zm-6.45,79.74c-.3-.03-.6-.07-.91-.11,0,0,0,0-.01,0h0c-.15-.02-.29-.04-.44-.06-.29-.04-.58-.09-.87-.14-.15-.02-.29-.05-.43-.08-.29-.05-.57-.11-.86-.17h0c-.29-.06-.57-.12-.85-.19-.51-.12-1.02-.24-1.52-.38-.4-.11-.8-.23-1.2-.35-.02,0-.04-.01-.07-.02-.28-.08-.55-.17-.82-.26,0,0,0,0-.01,0-.25-.08-.5-.17-.75-.26-.07-.02-.14-.05-.21-.07-.24-.09-.48-.18-.72-.27,0,0,0,0,0,0-.26-.1-.51-.2-.77-.31-1.7-.69-3.33-1.51-4.9-2.43-.11-.06-.21-.12-.31-.19-.25-.15-.5-.31-.75-.46-.25-.15-.5-.31-.74-.48-.24-.16-.49-.33-.73-.49-.12-.08-.24-.17-.36-.26-.04-.03-.09-.07-.13-.1-.53-.38-1.06-.78-1.57-1.19-.04-.03-.09-.07-.13-.1-1.2-.96-2.33-1.99-3.41-3.08-.04-.04-.08-.08-.12-.12-1.51-1.54-2.89-3.21-4.13-4.98-.19-.28-.39-.56-.57-.84-.02-.03-.04-.06-.06-.09-.24-.37-.48-.75-.71-1.13-.02-.03-.04-.06-.05-.09-.27-.44-.52-.88-.77-1.33-.02-.03-.03-.06-.05-.09-.23-.42-.46-.85-.67-1.28-.09-.17-.17-.35-.26-.52-.25-.52-.49-1.05-.72-1.59-.04-.09-.08-.19-.12-.29-.16-.38-.32-.76-.46-1.15-.19-.48-.36-.97-.53-1.47-.18-.52-.34-1.05-.49-1.58-.04-.13-.08-.26-.12-.4-.02-.08-.04-.16-.06-.24-.09-.32-.17-.63-.25-.95,0,0,0,0,0,0-.06-.24-.12-.48-.17-.72,0-.01,0-.02,0-.04-.05-.22-.1-.44-.14-.66-.09-.46-.18-.93-.26-1.39-.04-.26-.09-.51-.12-.77-.02-.15-.04-.3-.06-.46-.06-.44-.11-.89-.16-1.33,0-.03,0-.06,0-.09-.02-.16-.03-.33-.04-.49-.02-.23-.04-.47-.05-.7-.01-.21-.03-.42-.04-.63h0s0,0,0,0h0s35.16,35.16,35.16,35.16l1.85,1.85s-.1,0-.14,0c-.73-.04-1.45-.1-2.16-.18Zm3.43,.47l-.05-.05-.19-.19-18.75-18.76L2.67,54.08l-.83-.81-.69-.69c.16,0,.32,0,.49,0,.06,0,.11,0,.16,0,0,0,.02,0,.02,0,.28,.01,.56,.03,.84,.04h0c.71,.04,1.41,.1,2.12,.17,.6,.06,1.2,.14,1.79,.23,0,0,0,0,0,0,10.33,1.57,19.58,7.07,26.01,15.62,.08,.11,.16,.23,.25,.34,.83,1.13,1.62,2.33,2.33,3.54,.03,.05,.06,.1,.09,.15,.94,1.62,1.76,3.3,2.45,5.04,.15,.37,.3,.74,.43,1.12,.07,.17,.13,.34,.19,.51,.05,.12,.09,.24,.13,.37,.03,.07,.05,.14,.07,.21,.08,.25,.17,.5,.24,.75,.52,1.67,.94,3.37,1.24,5.09,.01,.04,.01,.07,.02,.11,.31,1.78,.5,3.59,.58,5.4,0,.26,.02,.52,.02,.79l-.62-.61ZM6.31,33.79s.02-.05,.03-.07h0c.08-.15,.16-.29,.23-.44,0,0,0-.02,.01-.02,.05-.09,.1-.18,.15-.27,.2-.36,.41-.72,.62-1.08h0c.14-.24,.28-.48,.43-.71h0c.15-.23,.3-.47,.45-.7,.08-.12,.15-.23,.23-.35,.23-.34,.47-.68,.71-1.02,.24-.34,.49-.67,.74-1,.17-.22,.34-.43,.51-.65h0c.17-.22,.35-.43,.53-.64,.09-.11,.18-.21,.27-.32,.18-.21,.36-.41,.54-.62h0s.05-.06,.08-.09c.16-.18,.32-.35,.48-.53,.28-.3,.57-.6,.86-.89,.39-.39,.79-.77,1.19-1.15,.61-.56,1.23-1.1,1.88-1.62,.11-.09,.22-.17,.32-.26,.22-.17,.43-.34,.66-.51,.22-.17,.44-.33,.66-.49,.23-.16,.45-.32,.68-.48,.23-.16,.46-.31,.69-.47,.23-.15,.46-.3,.7-.45,2.58-1.62,5.37-2.96,8.32-3.95,.27-.09,.54-.18,.81-.26,2.58-.81,5.27-1.35,8.05-1.61,.08,0,.16-.02,.24-.03,.12-.01,.24-.02,.36-.03,.11-.01,.23-.02,.34-.03h.04s.07,0,.1,0c.04,0,.09,0,.13,0,0,0,0,0,.01,0,.07,0,.14,0,.21,0l-.09,.49v.03s-.05,.24-.05,.24l-1.19,1.19h0S2.83,49.44,2.83,49.44l-.97,.97s0-.04,0-.05c0-.05,0-.1,0-.15,0-.06,0-.11,0-.16,0-.17,.02-.34,.03-.5,0-.08,0-.15,.02-.23h0v-.03c0-.08,.01-.16,.02-.24,.01-.16,.03-.31,.04-.47,0-.08,.01-.16,.02-.24,0-.05,.01-.09,.01-.13,.06-.59,.13-1.17,.21-1.74,0-.04,.01-.09,.02-.13,.06-.44,.14-.89,.22-1.32,.04-.22,.08-.44,.12-.66,.11-.54,.23-1.08,.36-1.62h0c.07-.27,.13-.54,.2-.8,.07-.27,.14-.53,.22-.79,0-.03,.02-.06,.03-.09,.27-.93,.57-1.84,.91-2.74,.03-.09,.07-.19,.1-.28h0c.16-.43,.33-.85,.51-1.27,0-.02,.01-.03,.02-.05h0s0,0,0,0h0c.12-.29,.25-.58,.38-.86,.01-.02,.02-.05,.03-.07,.31-.67,.63-1.32,.97-1.97ZM43.51,13.08s0,0,.01,0c.05,0,.1,0,.15,0,.03,0,.05,0,.08,0h.04c.12,0,.23,.02,.35,.03s.23,.02,.35,.03c.08,0,.15,.02,.23,.03,2.78,.26,5.48,.81,8.05,1.61,.27,.08,.54,.17,.81,.26,2.95,.99,5.74,2.32,8.32,3.95,.23,.15,.47,.3,.7,.45,.23,.15,.46,.31,.69,.47,.23,.15,.45,.31,.68,.48,.23,.16,.45,.32,.67,.49,.22,.17,.44,.34,.66,.51,.11,.09,.22,.17,.32,.26,.64,.52,1.27,1.06,1.88,1.62,.41,.37,.8,.76,1.19,1.15,2.33,2.34,4.37,4.97,6.05,7.85,2.8,4.79,4.6,10.24,5.15,16.07,.04,.31,.06,.63,.08,.94v.03c0,.08,0,.15,.01,.23,0,.12,.01,.25,.02,.38,0,.1,0,.2,.01,.3,0,.07,.01,.14,.01,.21l-.97-.97h0S44.63,15.03,44.63,15.03l-1.19-1.19-.05-.24-.1-.52c.07,0,.14,0,.21,0Zm36.72,39.5s.05,0,.07,0c.03,0,.06,0,.08,0,.11,0,.23,0,.34,0l-.5,.5-.19,.19-.83,.81h0s-37.1,37.11-37.1,37.11l-.19,.19h0s0,0,0,0l-.04,.04h-.01s-.62,.62-.62,.62c0-.23,.01-.47,.02-.7,.02-.41,.04-.82,.06-1.22,0-.06,0-.13,.01-.19,.03-.41,.07-.81,.11-1.22,0-.07,.01-.14,.02-.21,.04-.4,.09-.81,.15-1.21,0-.06,.02-.12,.03-.18,.06-.42,.12-.84,.2-1.26,0,0,0,0,0,0,.01-.04,.01-.07,.02-.11,.02-.09,.03-.18,.05-.26,.7-3.85,1.96-7.59,3.76-11.08,.3-.58,.61-1.16,.94-1.73,.02-.04,.05-.08,.07-.12,.71-1.22,1.5-2.42,2.34-3.56,.08-.11,.16-.23,.25-.34,.03-.04,.06-.08,.1-.13,1.24-1.63,2.58-3.15,4.01-4.55,.24-.23,.48-.46,.72-.69,.82-.76,1.66-1.49,2.53-2.17,.35-.27,.7-.54,1.06-.81,.18-.13,.36-.26,.54-.39,.02-.02,.05-.03,.07-.05,.31-.22,.63-.44,.95-.65,.02-.01,.04-.03,.07-.05,.3-.2,.6-.39,.9-.58,.46-.28,.92-.56,1.39-.82,.62-.35,1.25-.69,1.89-1.01,.32-.16,.64-.31,.96-.46,.81-.38,1.63-.73,2.47-1.05,.2-.08,.41-.15,.62-.23,.83-.3,1.67-.58,2.52-.83,.85-.25,1.71-.47,2.58-.66,.18-.04,.36-.08,.54-.11,.54-.11,1.08-.21,1.62-.3,.54-.09,1.09-.17,1.64-.23,0,0,0,0,0,0,.51-.06,1.03-.11,1.55-.16,.04,0,.07,0,.11-.01,.37-.03,.74-.05,1.11-.08,.28-.01,.56-.02,.84-.04,.06,0,.12,0,.17,0,0,0,0,0,0,0h0Zm-38.36,21.04c0-.18,.01-.36,.02-.54,0-.09,.01-.18,.02-.26,0-.09,0-.17,.02-.26,0,0,0-.02,0-.03,0,0,0-.01,0-.02,.01-.17,.03-.34,.05-.5,.01-.16,.03-.32,.05-.47,0-.03,0-.06,.01-.08,.02-.16,.04-.32,.07-.48,0,0,0-.02,0-.02,0,0,0,0,0,0,0-.02,0-.04,0-.06,.02-.15,.05-.31,.08-.46,.03-.16,.06-.31,.09-.47,0-.04,.02-.07,.02-.11,.03-.14,.06-.28,.09-.42,0-.04,.02-.08,.03-.12,0,0,0-.01,0-.02,.03-.12,.06-.24,.09-.36,.07-.29,.15-.58,.24-.86,.02-.07,.04-.14,.06-.21,.03-.08,.05-.17,.08-.25,.04-.13,.08-.25,.13-.38,.01-.04,.02-.07,.04-.1,.05-.14,.1-.28,.15-.42,.03-.09,.07-.18,.1-.27,0-.02,0-.03,.02-.05,.06-.15,.12-.3,.18-.44,.09-.22,.19-.43,.29-.65,.07-.15,.14-.3,.22-.45,.07-.15,.15-.3,.23-.44,0,0,0,0,0,0,.02-.04,.04-.07,.06-.11,.02-.04,.04-.07,.05-.1,0,0,0,0,0,0,.23-.43,.48-.86,.75-1.27,.05-.09,.11-.17,.17-.26,.21-.33,.44-.66,.67-.97,.06-.08,.12-.17,.19-.25,.18-.24,.37-.48,.56-.71,.09-.11,.17-.21,.26-.31,.32-.37,.66-.73,1-1.08,.06-.06,.12-.12,.18-.18,.21-.21,.43-.42,.66-.62,.01-.01,.02-.02,.03-.03,0,0,.01,0,.02-.01,.1-.09,.21-.19,.32-.28,.03-.02,.05-.05,.08-.07,.17-.15,.34-.29,.52-.43,.03-.02,.06-.05,.08-.07,.06-.05,.11-.09,.17-.14,0,0,0,0,0,0,.09-.07,.18-.14,.27-.2,.09-.07,.17-.13,.26-.19,.12-.09,.25-.18,.37-.27,.15-.11,.3-.21,.45-.31,.1-.07,.2-.13,.3-.2,0,0,.01,0,.02-.01,.21-.14,.43-.27,.65-.39,.11-.07,.22-.13,.33-.19,0,0,0,0,.01,0,.09-.05,.18-.1,.27-.15,.29-.15,.58-.31,.88-.45,.15-.07,.3-.14,.45-.21,.15-.07,.3-.14,.46-.2,0,0,0,0,.01,0,.3-.13,.6-.25,.91-.36,.02,0,.04-.01,.05-.02,.16-.06,.32-.11,.47-.17,.11-.04,.21-.07,.32-.1,.06-.02,.13-.04,.19-.06,.16-.05,.32-.1,.48-.14,0,0,.02,0,.03,0,.13-.04,.26-.07,.39-.11,.1-.03,.2-.05,.3-.08,.23-.06,.46-.11,.69-.16,0,0,0,0,.01,0,.08-.02,.17-.04,.25-.05,.31-.07,.62-.12,.94-.17,.14-.02,.27-.04,.41-.06,0,0,.01,0,.02,0,0,0,0,0,.01,0,.08,0,.16-.02,.24-.03,.12-.01,.23-.03,.35-.04,.14-.02,.28-.03,.42-.04,.06,0,.13,0,.19-.01,.15-.01,.31-.02,.46-.03,.01,0,.03,0,.04,0,.15,0,.3-.01,.45-.02,.03,0,.06,0,.09,0,.17,0,.34,0,.5,0v-1.84s0,0,0,0c-8.84,0-15.88-3.43-20.94-10.2,1.89-2.86,2.99-6.2,3.29-10.19,.02,.04,.05,.07,.07,.12,.22,.41,.45,.83,.68,1.23,.81,1.41,1.73,2.78,2.7,4.09,1.16,1.54,2.43,3.01,3.79,4.37,.03,.03,.06,.06,.09,.08,.43,.43,.87,.85,1.31,1.25,.16,.15,.32,.29,.48,.43,.02,.01,.03,.03,.05,.04,.31,.27,.61,.53,.93,.79,.33,.27,.66,.54,1,.8,5.82,4.53,12.71,7.36,20.04,8.25-2.81,.34-5.55,.96-8.21,1.88-.28,.1-.56,.19-.84,.3-.28,.1-.56,.21-.83,.32-.28,.11-.55,.22-.83,.34-.24,.1-.48,.2-.72,.31-.72,.31-1.43,.66-2.13,1.02-.43,.22-.86,.45-1.28,.68s-.84,.48-1.25,.73c-1.16,.7-2.28,1.46-3.37,2.27-.31,.23-.62,.47-.92,.71-.3,.24-.6,.49-.9,.73-.42,.35-.83,.71-1.24,1.08-.03,.02-.05,.05-.08,.07-.29,.26-.57,.53-.85,.8-.13,.12-.25,.25-.38,.38-1.34,1.34-2.6,2.76-3.74,4.27-.04,.05-.08,.1-.12,.15-.97,1.3-1.88,2.67-2.7,4.07-1.91,3.29-3.33,6.84-4.24,10.51v-8.71c0-.18,0-.36,0-.54Zm-6.1-1.26c-.81-1.4-1.73-2.77-2.7-4.07-1.86-2.48-4.01-4.75-6.39-6.75-2.37-1.99-4.96-3.73-7.72-5.13-1.98-1.02-4.02-1.86-6.11-2.53-.14-.04-.28-.09-.42-.13-.16-.05-.31-.1-.47-.14-.04-.01-.08-.02-.12-.04,0,0-.02,0-.03,0-.17-.05-.33-.1-.5-.14-.12-.04-.25-.07-.38-.1,0,0-.01,0-.02,0-.39-.11-.78-.2-1.17-.3h9.14c.17,0,.34,0,.5,0,.03,0,.06,0,.09,0,.15,0,.3,0,.45,.02,.01,0,.03,0,.04,0,.15,0,.3,.02,.45,.03,.07,0,.13,0,.2,.01,.14,.01,.28,.02,.43,.04,.1,0,.2,.02,.3,.03,.1,0,.19,.02,.29,.03,.45,.06,.9,.13,1.35,.22,.11,.02,.22,.04,.33,.07,.11,.02,.22,.05,.33,.07,.11,.02,.22,.05,.33,.08,.11,.02,.22,.05,.32,.08,.43,.11,.86,.24,1.28,.38,.07,.02,.14,.04,.21,.07,0,0,0,0,.01,0,.08,.02,.15,.05,.22,.08,.06,.02,.11,.04,.17,.06,0,0,0,0,0,0,.15,.05,.3,.11,.44,.17,.13,.05,.25,.1,.38,.15,.02,0,.04,.02,.07,.03,.29,.12,.58,.25,.87,.39,.02,.01,.04,.02,.07,.03,.1,.05,.2,.09,.29,.15,.3,.15,.58,.3,.87,.46,.17,.09,.33,.19,.5,.28,.16,.1,.33,.19,.49,.3,0,0,.01,0,.02,.01,.1,.07,.2,.13,.3,.2,.02,.01,.05,.03,.07,.04,.06,.04,.12,.08,.18,.12,.02,.02,.05,.03,.07,.05,.28,.19,.56,.39,.83,.59,.01,.01,.03,.02,.04,.03,.22,.17,.44,.34,.66,.52,.19,.16,.38,.32,.57,.49,.1,.08,.19,.17,.28,.25,.19,.17,.37,.34,.55,.52,0,0,.01,.01,.02,.02,.09,.09,.18,.18,.27,.27,.94,.96,1.79,2.02,2.54,3.15,.37,.56,.71,1.13,1.02,1.72,1.56,2.95,2.45,6.31,2.45,9.87v8.64s0,.08,0,.08c-.03-.11-.06-.22-.09-.32-.92-3.56-2.3-6.99-4.16-10.19ZM2.67,51.9c-.23,.01-.45,.02-.68,.03-.05,0-.1,0-.14,0h-.04s0,0,0,0c-.09,0-.19,0-.28,0,0,0,0,0,0,0-.12,0-.23,0-.35,0l.72-.7,.06-.06,.83-.83L38.16,14.95l.08-.08v.02s-.86,4.46-.86,4.46c-.29,1.51-.52,2.96-.67,4.35-.06,.5-.11,.99-.14,1.48-.02,.26-.04,.52-.06,.78,0,0,0,.02,0,.03,0,.16-.02,.32-.03,.48-.03,.52-.04,1.02-.05,1.52,0,.12,0,.23,0,.34,0,.1,0,.2,0,.29,0,.01,0,.03,0,.04v.63s0,0,0,0c.01,.12,.01,.24,.01,.36,0,0,0,.02-.01,.03,0,0,0,.01,0,.02h0c-.18,.37-.37,.73-.56,1.09h0s0,0,0,0c-.19,.35-.37,.69-.57,1.04,0,.01-.02,.03-.02,.04-.8,1.39-1.7,2.74-2.66,4.02-.57,.75-1.17,1.5-1.79,2.21-.63,.72-1.27,1.42-1.96,2.09-1.79,1.79-3.71,3.38-5.75,4.78-3.64,2.49-7.63,4.36-11.86,5.53-.15,.04-.3,.08-.45,.12,0,0-.02,0-.02,0-.18,.05-.36,.1-.54,.14-.04,0-.07,.02-.1,.03-.17,.04-.34,.08-.51,.12-.17,.04-.35,.08-.52,.12-.21,.05-.42,.09-.62,.13-.04,0-.08,.02-.12,.02-.07,.01-.13,.03-.19,.04-1.11,.22-2.23,.38-3.36,.5-.09,.01-.18,.02-.27,.03-.31,.03-.62,.06-.92,.08-.02,0-.03,0-.05,0-.29,.02-.59,.04-.88,.06Zm36.7-11.63c.05,.09,.11,.19,.17,.28,.06,.09,.12,.18,.17,.27,.04,.05,.07,.11,.11,.16-.03,.04-.06,.07-.09,.11-.87,1.15-1.81,2.21-2.8,3.17-.09,.09-.18,.18-.28,.27-4.7,4.42-10.66,6.65-17.78,6.65h-7.9c6.86-1.82,13.16-5.43,18.31-10.58,1.36-1.36,2.64-2.83,3.79-4.38,.97-1.3,1.89-2.67,2.7-4.08,.23-.4,.46-.81,.68-1.23,.02-.05,.05-.08,.07-.12,0,0,0,0,0,0,0,.01,0,.02,0,.04,.18,2.33,.63,4.44,1.36,6.37,.41,1.08,.9,2.1,1.48,3.06Zm40.64,11.67c-.13,0-.26-.01-.39-.02-.14,0-.27-.01-.41-.02-.29-.02-.59-.04-.88-.06-.02,0-.03,0-.05,0-.31-.02-.61-.05-.92-.08-.46-.05-.92-.1-1.37-.16-.31-.04-.61-.08-.91-.13-.15-.02-.3-.05-.44-.07,0,0,0,0,0,0,0,0-.01,0-.02,0-.29-.05-.59-.1-.88-.16-.15-.03-.3-.06-.45-.09-.3-.06-.6-.13-.89-.19-.78-.18-1.55-.38-2.31-.61-.01,0-.03,0-.04-.01-.24-.07-.48-.15-.72-.22-.41-.13-.81-.26-1.21-.4-.1-.04-.2-.07-.3-.11-.01,0-.02,0-.04-.01-.24-.09-.47-.17-.71-.26-.4-.15-.79-.31-1.18-.48-.1-.04-.2-.08-.29-.12-.24-.1-.49-.21-.73-.32-.24-.11-.48-.22-.72-.34-.1-.05-.2-.1-.3-.15-.38-.18-.75-.37-1.12-.57-.05-.03-.1-.06-.16-.09-.4-.22-.8-.44-1.2-.67-.03-.02-.05-.03-.08-.05-.4-.23-.79-.47-1.18-.71-.05-.03-.1-.06-.15-.09-.22-.14-.45-.29-.67-.43,0,0,0,0,0,0,0,0-.02-.01-.03-.02-.43-.29-.86-.59-1.29-.89-.41-.3-.81-.6-1.21-.92-.08-.07-.17-.13-.25-.2-.12-.09-.24-.19-.36-.29-.36-.29-.71-.59-1.06-.89-.12-.1-.23-.2-.35-.31-.23-.21-.46-.42-.69-.63,0,0,0,0,0,0-.34-.31-.67-.63-.99-.96,0,0,0,0,0,0-.02-.02-.04-.04-.06-.06-.6-.59-1.16-1.21-1.72-1.83-.06-.06-.12-.13-.17-.19-.04-.05-.08-.1-.12-.14-.57-.67-1.13-1.36-1.67-2.07-.96-1.29-1.86-2.64-2.66-4.02-.4-.72-.79-1.43-1.16-2.16-.01-.01-.03-.04-.03-.05,0-.12,0-.24,.01-.36h0s0-.63,0-.63c0-.01,0-.03,0-.04,0-.1,0-.19,0-.29,0-.11,0-.23,0-.35-.03-2.61-.34-5.48-.95-8.63l-.04-.22-.82-4.25,.08,.08h0s.88,.89,.88,.89l16.81,16.82,16.71,16.72,.99,.99h0s.92,.92,.92,.92l.68,.67c-.17,0-.33,0-.49,0-.06,0-.13,0-.19,0h-.01s-.01,0-.02,0Zm-39.07,15.8c-.08-.26-.15-.51-.24-.76-.04-.12-.08-.24-.12-.36,0-.01,0-.02-.01-.04-2.27-6.4-8.65-13.27-16.07-14.33,0,0,.04,0,0,0,9.27-1.85,14.92-7.29,16.45-9.56,0,0,0,0,0,0,3.91,4.96,10.43,8.19,16.44,9.57,0,0,0,0,0,0-1.33,0-3.99,1.04-4.37,1.22-.19,.09-.37,.18-.55,.28-.02,.01-.04,.02-.06,.03-.4,.21-.79,.43-1.17,.65-.26,.16-.51,.32-.77,.48-.04,.03-.08,.05-.13,.08-.19,.13-.39,.26-.58,.4-.48,.34-.94,.69-1.39,1.06,0,0-.02,.02-.03,.02-.17,.14-.34,.28-.51,.43-2.23,1.96-4.07,4.34-5.41,7.01-.61,1.22-1.11,2.49-1.5,3.82Zm2.04,23.41l37.01-37.01c-.88,17.14-12.85,31.4-28.86,35.72-2.62,.71-5.35,1.15-8.15,1.29Zm-1.9-79.98h0l.06,.35v.02s.12,.68,.12,.68v.05s.07,.29,.07,.29h0s0,.02,0,.02l.05,.25,1.31,6.86c.16,.81,.3,1.61,.4,2.37,0,.02,0,.05,.01,.07,.07,.44,.13,.88,.18,1.3,.06,.5,.12,1.01,.16,1.48v.03h0c.04,.29,.06,.58,.07,.87,.03,.41,.05,.81,.07,1.2,.01,.31,.02,.62,.02,.93,.02,1.45-.07,2.82-.24,4.1-.08,.61-.18,1.2-.31,1.77-.44,2.04-1.15,3.87-2.14,5.52-1.84-3.08-2.73-6.79-2.68-11.34,0-.3,.01-.61,.02-.92,0-.03,0-.06,0-.08h0s0,.02,0,.02c0-.06,0-.12,.01-.19,0-.06,0-.13,.01-.19,0-.07,0-.15,.01-.22,0-.03,0-.06,0-.09,0-.03,0-.06,0-.09,0-.14,.02-.28,.02-.42,0-.06,0-.12,.01-.17,.01-.17,.02-.35,.04-.52,0,0,0,0,0-.01,0-.06,.01-.11,.02-.17h0v-.02c.03-.44,.09-.91,.14-1.37,0-.04,0-.08,.01-.11,.01-.1,.02-.19,.04-.29,.01-.12,.03-.23,.04-.35,.02-.11,.03-.22,.05-.33,.02-.11,.04-.22,.05-.32,0-.05,.01-.1,.02-.15,0-.03,.01-.07,.02-.1,.1-.71,.23-1.44,.38-2.19l1.31-6.86,.05-.25h0s0-.02,0-.02l.06-.29v-.05s.13-.68,.13-.68l.21-1.16,.14,.79Z"/>
  </g>
</svg>